<svg width="120" height="120" viewBox="0 0 120 120" fill="none" xmlns="http://www.w3.org/2000/svg">
<rect width="120" height="120" rx="12" fill="#EAEAEA"/>
<path opacity="0.4" d="M85 49.525V64.75L80.925 61.25C78.975 59.575 75.825 59.575 73.875 61.25L63.475 70.175C61.525 71.85 58.375 71.85 56.425 70.175L55.575 69.475C53.8 67.925 50.975 67.775 48.975 69.125L36.675 77.375L36.4 77.575C35.475 75.575 35 73.2 35 70.475V49.525C35 40.425 40.425 35 49.525 35H70.475C79.575 35 85 40.425 85 49.525Z" fill="#AEAEAE"/>
<path d="M52.5 55.95C55.7861 55.95 58.45 53.2861 58.45 50C58.45 46.7139 55.7861 44.05 52.5 44.05C49.2139 44.05 46.55 46.7139 46.55 50C46.55 53.2861 49.2139 55.95 52.5 55.95Z" fill="#AEAEAE"/>
<path d="M85 64.75V70.475C85 79.575 79.575 85 70.475 85H49.525C43.15 85 38.55 82.325 36.4 77.575L36.675 77.375L48.975 69.125C50.975 67.775 53.8 67.925 55.575 69.475L56.425 70.175C58.375 71.85 61.525 71.85 63.475 70.175L73.875 61.25C75.825 59.575 78.975 59.575 80.925 61.25L85 64.75Z" fill="#AEAEAE"/>
</svg>
